<svg class="svg-icon" style="width: 1em; height: 1em;vertical-align: middle;overflow: hidden;" viewBox="0 0 1024 1024" version="1.1" xmlns="http://www.w3.org/2000/svg"><path d="M199.1 850.9l-10-10c-25.3-25.3-25.3-66.6 0-91.9l143.4-143.4c25.3-25.3 66.6-25.3 91.9 0l10 10c25.3 25.3 25.3 66.6 0 91.9L291 850.9c-25.3 25.3-66.6 25.3-91.9 0z" fill="#FFFFFF" /><path d="M245 879.9c-20.1 0-38.9-7.8-53-21.9l-10-10c-29.2-29.2-29.2-76.8 0-106.1l143.4-143.4c29.2-29.2 76.8-29.2 106.1 0l10 10c29.2 29.2 29.2 76.8 0 106.1L298.1 858c-14.1 14.1-33 21.9-53.1 21.9z m133.4-283.3c-14.1 0-28.2 5.4-38.9 16.1L196.1 756c-21.4 21.4-21.4 56.3 0 77.8l10 10c10.3 10.3 24.1 16 38.9 16s28.6-5.7 38.9-16l143.4-143.4c21.4-21.4 21.4-56.3 0-77.8l-10-10c-10.8-10.7-24.8-16-38.9-16z" fill="#424242" /><path d="M379.7 293.2c-21.8 28-36.6 58.4-45.9 92.6-7 31.9-9.3 60.7-4.7 93.4 1.6 10.9 3.9 21 6.2 31.1 11.7 42.8 35.8 79.4 68.5 107.4 13.2 11.7 27.2 22.6 43.6 31.1 21.8 9.3 42 17.1 66.1 21 40.5 4.7 77.8-1.6 114.4-17.9 9.3-4.7 18.7-10.9 28-17.1 6.2-4.7 11.7-10.1 17.9-14.8 17.9-16.3 30.3-36.6 40.5-57.6 6.2-15.6 10.9-31.1 13.2-47.5 5.4-53.7-13.2-105.1-54.5-138.5-40.5-32.7-98-40.5-144-11.7-10.9 6.2-17.9 14.8-26.5 23.3-3.9 5.4-8.6 11.7-11.7 17.9-3.9 10.1-8.6 21-9.3 32.7-1.6 15.6 1.6 29.6 7.8 43.6 7.8 15.6 21 27.2 36.6 33.5 17.1 6.2 36.6 2.3 49-10.1 3.1-4.7 7-8.6 7-14.8-0.8-3.9 0-7.8-1.6-10.9-0.8-2.3-2.3-5.4-4.7-6.2-10.1-3.9-24.9-3.1-24.9-18.7s10.9-26.5 24.1-30.3c3.9-0.8 7.8-1.6 11.7-2.3 8.6 0.8 17.1 1.6 25.7 5.4 3.9 2.3 8.6 5.4 12.5 7.8 7.8 6.2 13.2 13.2 17.9 22.6 2.3 5.4 3.9 10.1 6.2 15.6 7.8 28-0.8 56.8-17.9 78.6-9.3 10.9-19.5 19.5-31.9 27.2-38.9 21.8-86.4 19.5-124.5-4.7-14-9.3-26.5-20.2-37.4-32.7-3.9-5.4-7-10.1-10.1-16.3-50.6-80.2-14-186.8 67.7-231.1 16.3-8.6 31.9-14.8 49-19.5 26.5-6.2 50.6-7 77.8-3.1 31.1 4.7 57.6 15.6 84 32.7 17.1 10.9 31.1 23.3 43.6 37.4 18.7 20.2 31.9 44.4 42 70 24.9 65.4 17.9 137.7-14 199.2-9.3 17.1-19.5 31.9-31.9 45.9-9.3 9.3-17.1 18.7-27.2 27.2-63.8 54.5-147.9 76.3-233.5 59.1-49-10.1-89.5-31.9-126.8-61.4-0.7-0.3-4.1-3.1-7.9-6.3 54.1 56.9 130.6 92.4 215.3 92.4 164.1 0 297.1-133 297.1-297.1 0-87.3-37.7-165.8-97.6-220.2-113.3-90.9-293.5-77.3-384.9 42.1z" fill="#BBDEFB" /><path d="M357.9 682.3c37.4 29.5 77.8 51.3 126.8 61.4 85.6 17.1 169.6-4.7 233.5-59.1 10.1-8.6 17.9-17.9 27.2-27.2 12.5-14 22.6-28.8 31.9-45.9 31.9-61.5 38.9-133.8 14-199.2-10.1-25.7-23.3-49.8-42-70-12.5-14-26.5-26.5-43.6-37.4-26.5-17.1-52.9-28-84-32.7-27.2-3.9-51.4-3.1-77.8 3.1-17.1 4.7-32.7 10.9-49 19.5-81.7 44.4-118.3 151-67.7 231.1 3.1 6.2 6.2 10.9 10.1 16.3 10.9 12.5 23.3 23.3 37.4 32.7 38.1 24.1 85.6 26.5 124.5 4.7 12.5-7.8 22.6-16.3 31.9-27.2 17.1-21.8 25.7-50.6 17.9-78.6-2.3-5.4-3.9-10.1-6.2-15.6-4.7-9.3-10.1-16.3-17.9-22.6-3.9-2.3-8.6-5.4-12.5-7.8-8.6-3.9-17.1-4.7-25.7-5.4-3.9 0.8-7.8 1.6-11.7 2.3-13.2 3.9-24.1 14.8-24.1 30.3 0 15.6 14.8 14.8 24.9 18.7 2.3 0.8 3.9 3.9 4.7 6.2 1.6 3.1 0.8 7 1.6 10.9 0 6.2-3.9 10.1-7 14.8-12.5 12.5-31.9 16.3-49 10.1-15.6-6.2-28.8-17.9-36.6-33.5-6.2-14-9.3-28-7.8-43.6 0.8-11.7 5.4-22.6 9.3-32.7 3.1-6.2 7.8-12.5 11.7-17.9 8.6-8.6 15.6-17.1 26.5-23.3 45.9-28.8 103.5-21 144 11.7 41.2 33.5 59.9 84.8 54.5 138.5-2.3 16.3-7 31.9-13.2 47.5-10.1 21-22.6 41.2-40.5 57.6-6.2 4.7-11.7 10.1-17.9 14.8-9.3 6.2-18.7 12.5-28 17.1-36.6 16.3-73.9 22.6-114.4 17.9-24.1-3.9-44.4-11.7-66.1-21-16.3-8.6-30.3-19.5-43.6-31.1-32.7-28-56.8-64.6-68.5-107.4-2.3-10.1-4.7-20.2-6.2-31.1-4.7-32.7-2.3-61.5 4.7-93.4 9.3-34.2 24.1-64.6 45.9-92.6 91.4-119.3 271.6-132.9 385.2-42.1-52.7-47.8-122.7-77-199.5-77-164.1 0-297.1 133-297.1 297.1 0 79.4 31.1 151.5 81.8 204.7 3.5 3.3 6.9 6.1 7.6 6.4z" fill="#42A5F5" /><path d="M565.4 778.4c-82 0-159.2-31.9-217.2-90-58-58-90-135.1-90-217.2s31.9-159.2 90-217.2 135.1-90 217.2-90 159.2 31.9 217.2 90 90 135.1 90 217.2-31.9 159.2-90 217.2-135.2 90-217.2 90z m0-594.3c-76.7 0-148.8 29.9-203 84.1s-84.1 126.3-84.1 203 29.9 148.8 84.1 203 126.3 84.1 203 84.1 148.8-29.9 203-84.1c54.2-54.2 84.1-126.3 84.1-203s-29.9-148.8-84.1-203c-54.2-54.2-126.3-84.1-203-84.1z" fill="#424242" /></svg>